<svg xmlns="http://www.w3.org/2000/svg" width="595" height="595" fill="none"><g clip-path="url(#a)"><path fill="#1F3A93" d="M0 0h595v595H0z"/><path fill="url(#b)" d="m179.959 431.58 344.182 344.183 282.13-282.13L446.138 133.5l-.015-.001A15.947 15.947 0 0 0 435 129c-7.09 0-13.104 4.612-15.203 11H233.183a10 10 0 0 0-9.903 8.608l-35.952 255.815C180.261 406.083 175 412.427 175 420c0 4.555 1.904 8.666 4.959 11.58Z"/><path fill="url(#c)" d="M332.387 445 230.098 342.711A15.954 15.954 0 0 1 225 331c0-8.837 7.163-16 16-16 7.09 0 13.104 4.612 15.203 11h126.352a9.962 9.962 0 0 1 7.721 3.645l282.337 282.337-66.391 66.391 13.207 13.207-20.231 20.231-13.207-13.207L476.266 808.33 130.07 462.133A15.96 15.96 0 0 1 124.5 450c0-8.837 7.163-16 16-16 7.09 0 13.104 4.612 15.203 11h176.684Z"/><path fill="url(#d)" d="M427.743 164.132A15.96 15.96 0 0 0 416 159c-7.09 0-13.104 4.612-15.203 11H256.193a10 10 0 0 0-9.903 8.608l-16.584 118a9.972 9.972 0 0 0 2.992 8.62l155.004 155.008c.353.424.728.829 1.123 1.214l-.004.003 254.89 254.89 96.526-96.526-33.485-33.485 71.595-71.595-350.604-350.605Z"/><path fill="#fff" fill-rule="evenodd" d="M241 347c-8.837 0-16-7.163-16-16s7.163-16 16-16c7.09 0 13.104 4.612 15.203 11h126.352c6.076 0 10.748 5.374 9.903 11.392l-15.319 109a10 10 0 0 1-9.902 8.608H155.703c-2.099 6.388-8.113 11-15.203 11-8.837 0-16-7.163-16-16s7.163-16 16-16c7.09 0 13.104 4.612 15.203 11h207.189a5 5 0 0 0 4.951-4.304l13.911-99a5 5 0 0 0-4.951-5.696h-120.6c-2.099 6.388-8.113 11-15.203 11Zm0-8a8 8 0 1 1 0-16 8 8 0 0 1 0 16ZM140.5 458a8 8 0 1 1 0-16 8 8 0 0 1 0 16Z" clip-rule="evenodd"/><path fill="#fff" fill-rule="evenodd" d="M432 175c0 8.837-7.163 16-16 16-7.09 0-13.104-4.612-15.203-11H260.539a5 5 0 0 0-4.951 4.304l-15.178 108a5 5 0 0 0 4.951 5.696h168.925c6.076 0 10.748 5.374 9.903 11.392l-17.705 125.976C412.09 437.856 416 443.471 416 450c0 8.837-7.163 16-16 16s-16-7.163-16-16c0-7.643 5.359-14.034 12.524-15.622l16.961-120.682a5 5 0 0 0-4.951-5.696H239.609c-6.076 0-10.748-5.375-9.903-11.392l16.584-118a10 10 0 0 1 9.903-8.608h144.604c2.099-6.388 8.113-11 15.203-11 8.837 0 16 7.163 16 16Zm-24 0a8 8 0 1 0 16 0 8 8 0 0 0-16 0Zm-16 275a8 8 0 1 0 16 0 8 8 0 0 0-16 0Z" clip-rule="evenodd"/><path fill="#fff" fill-rule="evenodd" d="M435 161c8.837 0 16-7.163 16-16s-7.163-16-16-16c-7.09 0-13.104 4.612-15.203 11H233.183a10 10 0 0 0-9.903 8.608l-35.952 255.815C180.261 406.083 175 412.427 175 420c0 8.837 7.163 16 16 16s16-7.163 16-16c0-6.598-3.994-12.263-9.696-14.71l35.274-250.986a5 5 0 0 1 4.951-4.304h182.268c2.099 6.388 8.113 11 15.203 11Zm0-8a8 8 0 1 1 0-16 8 8 0 0 1 0 16ZM191 428a8 8 0 1 1 0-16 8 8 0 0 1 0 16Z" clip-rule="evenodd"/></g><defs><radialGradient id="b" cx="0" cy="0" r="1" gradientTransform="matrix(397.50011 445.50053 -635.63722 567.15055 225.5 142)" gradientUnits="userSpaceOnUse"><stop stop-opacity=".8"/><stop offset=".279" stop-opacity=".35"/><stop offset="1" stop-opacity=".1"/></radialGradient><radialGradient id="c" cx="0" cy="0" r="1" gradientTransform="rotate(45 -333.126 409.515) scale(478.711 531.872)" gradientUnits="userSpaceOnUse"><stop stop-opacity=".2"/><stop offset="1" stop-opacity=".05"/></radialGradient><radialGradient id="d" cx="0" cy="0" r="1" gradientTransform="rotate(45 -232.422 410.228) scale(449.013 411.379)" gradientUnits="userSpaceOnUse"><stop stop-opacity=".1"/><stop offset="1" stop-opacity=".05"/></radialGradient><clipPath id="a"><path fill="#fff" d="M0 0h595v595H0z"/></clipPath></defs></svg>